<?xml version="1.0" encoding="utf-8"?>
<svg version="1.0" id="Ebene_1" xmlns="http://www.w3.org/2000/svg" xmlns:xlink="http://www.w3.org/1999/xlink" x="0px" y="0px"
	 width="100px" height="20.3px" viewBox="0 0 100 20.3" enable-background="new 0 0 100 20.3" xml:space="preserve">
<path fill="#FFFFFF" d="M3.21,10.59H0V7.38h3.21V10.59z M0,0v5.46h0.96V5.3c0-2.57,1.44-4.17,4.17-4.17h0.16v11.55
	c0,1.6-0.64,2.25-2.24,2.25H2.56v1.12h8.33v-1.12h-0.48c-1.6,0-2.24-0.64-2.24-2.25V1.12h0.16c2.72,0,4.17,1.6,4.17,4.17v0.16h0.96
	V0H0z M10.26,10.59h3.21V7.38h-3.21V10.59z M92.42,12.64c0-1.15,0.98-1.71,2.88-1.71h0.62v0.55c0,1.37-0.77,2.5-2.14,2.5
	C93.04,13.98,92.42,13.48,92.42,12.64z M99.52,13.77c-0.34,0-0.58-0.22-0.58-0.7V8.6c0-2.71-1.61-4.52-4.68-4.52
	c-2.45,0-4.22,1.39-4.46,3.75h2.95c0.14-0.72,0.62-1.25,1.51-1.25c1.15,0,1.66,0.67,1.66,1.8v0.46H95.3c-3.36,0-5.83,1.3-5.83,4.04
	c0,2.11,1.3,3.41,3.5,3.41c1.3,0,2.45-0.48,3.14-1.56h0.12c0.31,1.11,1.39,1.47,2.3,1.47c0.46,0,1.1-0.12,1.46-0.31v-2.19
	C99.88,13.74,99.74,13.77,99.52,13.77z M86.38,16.24c0.86,0,1.56-0.12,2.21-0.41v-2.43c-0.41,0.1-0.86,0.17-1.32,0.17
	c-0.89,0-1.39-0.46-1.39-1.32V7.11h2.95V4.47h-2.95v-4.2H85.3l-2.52,2.33v1.87h-1.97v2.64h1.97v5.53
	C82.78,14.99,84.25,16.24,86.38,16.24z M76.55,4.08c-1.39,0-2.5,0.67-3.1,1.8h-0.14V4.47h-2.9v11.58h3.09v-6.8
	c0-1.42,0.79-2.33,1.97-2.33c1.1,0,1.51,0.72,1.51,1.85v7.28h3.1V8.38C80.07,5.55,78.9,4.08,76.55,4.08z M64.27,6.7
	c1.03,0,1.85,0.5,2.06,2.07h-4.27C62.35,7.21,63.14,6.7,64.27,6.7z M69.26,9.92c0-3.53-1.97-5.84-4.99-5.84
	c-3.24,0-5.25,2.28-5.25,6.17c0,3.94,2.09,6.17,5.18,6.17c2.54,0,4.49-1.39,4.94-3.68h-3.12c-0.29,0.7-0.91,1.06-1.82,1.06
	c-1.18,0-2.06-0.62-2.23-2.81h7.25C69.26,10.74,69.26,10.33,69.26,9.92z M52.63,12.71c-1.49,0-2.23-1.08-2.23-2.86
	c0-1.8,0.74-2.86,2.23-2.86c1.49,0,2.23,1.06,2.23,2.86C54.86,11.63,54.12,12.71,52.63,12.71z M55.01,4.47v1.3h-0.14
	c-0.53-0.98-1.51-1.68-3.05-1.68c-2.88,0-4.56,2.26-4.56,5.77s1.68,5.74,4.56,5.74c1.34,0,2.3-0.53,2.85-1.32h0.14v1.47
	c0,1.25-0.7,2.04-2.14,2.04c-1.06,0-1.7-0.34-1.92-0.94h-3.1c0.26,1.83,2.06,3.46,5.01,3.46c3.38,0,5.23-1.9,5.23-4.61V4.47H55.01z
	 M39.49,12.64c0-1.15,0.98-1.71,2.88-1.71h0.62v0.55c0,1.37-0.77,2.5-2.14,2.5C40.11,13.98,39.49,13.48,39.49,12.64z M46.59,13.77
	c-0.34,0-0.58-0.22-0.58-0.7V8.6c0-2.71-1.61-4.52-4.68-4.52c-2.45,0-4.22,1.39-4.46,3.75h2.95c0.14-0.72,0.62-1.25,1.51-1.25
	c1.15,0,1.66,0.67,1.66,1.8v0.46h-0.62c-3.36,0-5.83,1.3-5.83,4.04c0,2.11,1.3,3.41,3.5,3.41c1.3,0,2.45-0.48,3.14-1.56h0.12
	c0.31,1.11,1.39,1.47,2.3,1.47c0.46,0,1.1-0.12,1.46-0.31v-2.19C46.95,13.74,46.81,13.77,46.59,13.77z M32.52,0l-4.75,8.89h-0.14
	L22.85,0h-2.97v16.05h3.24V6.99h0.14l3.91,7.06h1.03l3.93-7.06h0.14v9.06h3.24V0H32.52z"/>
</svg>
